ffmpeg started on 2025-05-25 at 19:07:51
Report written to "D:\Convert\FFMetrics\reports\psnr_report-6.txt"
Log level: 32
Command line:
ffmpeg -hide_banner -nostdin -i "G:\\\xc0\xed\xe8\xec\xe5\\\xce\xed\xe3\xee\xe8\xed\xe3\xe8\\!_34_\xc2\xe5\xf1\xed\xe0_2024\\JamClub\\\xc1\xee\xf0\xfc\xe1\xe0 \xe2 \xef\xf0\xff\xec\xee\xec \xfd\xf4\xe8\xf0\xe5\\[JAM_CLUB]_Kenka_Dokugaku_10_[1080p][RUS][DUB]_HEVC.mkv" -i "G:\\\xc0\xed\xe8\xec\xe5\\\xce\xed\xe3\xee\xe8\xed\xe3\xe8\\!_34_\xc2\xe5\xf1\xed\xe0_2024\\JamClub\\\xc1\xee\xf0\xfc\xe1\xe0 \xe2 \xef\xf0\xff\xec\xee\xec \xfd\xf4\xe8\xf0\xe5\\[JAM_CLUB]_Kenka_Dokugaku_10_[1080p][RUS][DUB].mp4" -lavfi "[0:v]settb=AVTB,setpts=PTS-STARTPTS,format=pix_fmts=yuv420p10,fps=24000/1001,scale=1920:1080:flags=bicubic[main];[1:v]settb=AVTB,setpts=PTS-STARTPTS,format=pix_fmts=yuv420p,fps=24000/1001,scale=1920:1080:flags=bicubic[ref];[main][ref]psnr=eof_action=endall:stats_file='D\\:/Convert/FFMetrics/logs/psnr_logfile-6.txt'" -f null -
Input #0, matroska,webm, from 'G:\Аниме\Онгоинги\!_34_Весна_2024\JamClub\Борьба в прямом эфире\[JAM_CLUB]_Kenka_Dokugaku_10_[1080p][RUS][DUB]_HEVC.mkv':
  Metadata:
    COMPATIBLE_BRANDS: isomiso2avc1mp41
    MAJOR_BRAND     : isom
    MINOR_VERSION   : 512
    ENCODER         : Lavf61.7.100
  Duration: 00:23:17.33, start: -0.001000, bitrate: 1164 kb/s
  Stream #0:0: Video: hevc (Main 10), yuv420p10le(tv, bt709, progressive), 1920x1080 [SAR 1:1 DAR 16:9], 23.98 fps, 23.98 tbr, 1k tbn (default)
      Metadata:
        HANDLER_NAME    : VideoHandler
        VENDOR_ID       : [0][0][0][0]
        ENCODER         : Lavc61.19.100 libx265
        BPS             : 964449
        DURATION        : 00:23:17.187708333
        NUMBER_OF_FRAMES: 33499
        NUMBER_OF_BYTES : 168439518
        _STATISTICS_WRITING_APP: mkvpropedit v66.0.0 ('Josie') 64-bit
        _STATISTICS_WRITING_DATE_UTC: 2025-05-25 14:44:36
        _STATISTICS_TAGS: BPS DURATION NUMBER_OF_FRAMES NUMBER_OF_BYTES
  Stream #0:1(eng): Audio: aac (LC), 48000 Hz, stereo, fltp (default)
      Metadata:
        HANDLER_NAME    : SoundHandler
        VENDOR_ID       : [0][0][0][0]
        ENCODER         : Lavc61.19.100 aac
        BPS             : 196474
        DURATION        : 00:23:17.293000000
        NUMBER_OF_FRAMES: 65499
        NUMBER_OF_BYTES : 34316604
        _STATISTICS_WRITING_APP: mkvpropedit v66.0.0 ('Josie') 64-bit
        _STATISTICS_WRITING_DATE_UTC: 2025-05-25 14:44:36
        _STATISTICS_TAGS: BPS DURATION NUMBER_OF_FRAMES NUMBER_OF_BYTES
Input #1, mov,mp4,m4a,3gp,3g2,mj2, from 'G:\Аниме\Онгоинги\!_34_Весна_2024\JamClub\Борьба в прямом эфире\[JAM_CLUB]_Kenka_Dokugaku_10_[1080p][RUS][DUB].mp4':
  Metadata:
    major_brand     : isom
    minor_version   : 512
    compatible_brands: isomiso2avc1mp41
    encoder         : Lavf60.16.100
  Duration: 00:23:17.31, start: 0.000000, bitrate: 3800 kb/s
  Stream #1:0[0x1](und): Video: h264 (High) (avc1 / 0x31637661), yuv420p(progressive), 1920x1080 [SAR 1:1 DAR 16:9], 3602 kb/s, 23.98 fps, 23.98 tbr, 90k tbn (default)
      Metadata:
        handler_name    : VideoHandler
        vendor_id       : [0][0][0][0]
  Stream #1:1[0x2](eng): Audio: aac (LC) (mp4a / 0x6134706D), 48000 Hz, stereo, fltp, 191 kb/s (default)
      Metadata:
        handler_name    : SoundHandler
        vendor_id       : [0][0][0][0]
Stream mapping:
  Stream #0:0 (hevc) -> settb:default
  Stream #1:0 (h264) -> settb:default
  psnr:default -> Stream #0:0 (wrapped_avframe)
  Stream #0:1 -> #0:1 (aac (native) -> pcm_s16le (native))
Output #0, null, to 'pipe:':
  Metadata:
    COMPATIBLE_BRANDS: isomiso2avc1mp41
    MAJOR_BRAND     : isom
    MINOR_VERSION   : 512
    encoder         : Lavf61.7.100
  Stream #0:0: Video: wrapped_avframe, yuv420p10le(tv, bt709, progressive), 1920x1080 [SAR 1:1 DAR 16:9], q=2-31, 200 kb/s, 23.98 fps, 23.98 tbn
      Metadata:
        encoder         : Lavc61.19.100 wrapped_avframe
  Stream #0:1(eng): Audio: pcm_s16le, 48000 Hz, stereo, s16, 1536 kb/s (default)
      Metadata:
        HANDLER_NAME    : SoundHandler
        VENDOR_ID       : [0][0][0][0]
        _STATISTICS_TAGS: BPS DURATION NUMBER_OF_FRAMES NUMBER_OF_BYTES
        BPS             : 196474
        DURATION        : 00:23:17.293000000
        NUMBER_OF_FRAMES: 65499
        NUMBER_OF_BYTES : 34316604
        _STATISTICS_WRITING_APP: mkvpropedit v66.0.0 ('Josie') 64-bit
        _STATISTICS_WRITING_DATE_UTC: 2025-05-25 14:44:36
        encoder         : Lavc61.19.100 pcm_s16le
frame=  104 fps=0.0 q=-0.0 size=N/A time=00:00:04.33 bitrate=N/A speed=8.59x    frame=  259 fps=251 q=-0.0 size=N/A time=00:00:10.80 bitrate=N/A speed=10.5x    frame=  445 fps=289 q=-0.0 size=N/A time=00:00:18.56 bitrate=N/A speed=12.1x    frame=  685 fps=334 q=-0.0 size=N/A time=00:00:28.57 bitrate=N/A speed=13.9x    frame=  912 fps=354 q=-0.0 size=N/A time=00:00:38.03 bitrate=N/A speed=14.8x    frame= 1125 fps=365 q=-0.0 size=N/A time=00:00:46.92 bitrate=N/A speed=15.2x    frame= 1321 fps=367 q=-0.0 size=N/A time=00:00:55.09 bitrate=N/A speed=15.3x    frame= 1503 fps=365 q=-0.0 size=N/A time=00:01:02.68 bitrate=N/A speed=15.2x    frame= 1715 fps=370 q=-0.0 size=N/A time=00:01:11.52 bitrate=N/A speed=15.4x    frame= 1923 fps=374 q=-0.0 size=N/A time=00:01:20.20 bitrate=N/A speed=15.6x    frame= 2131 fps=376 q=-0.0 size=N/A time=00:01:28.88 bitrate=N/A speed=15.7x    frame= 2337 fps=378 q=-0.0 size=N/A time=00:01:37.47 bitrate=N/A speed=15.8x    frame= 2542 fps=380 q=-0.0 size=N/A time=00:01:46.02 bitrate=N/A speed=15.8x    frame= 2775 fps=385 q=-0.0 size=N/A time=00:01:55.74 bitrate=N/A speed=16.1x    frame= 3011 fps=389 q=-0.0 size=N/A time=00:02:05.58 bitrate=N/A speed=16.2x    frame= 3156 fps=383 q=-0.0 size=N/A time=00:02:11.63 bitrate=N/A speed=  16x    frame= 3309 fps=378 q=-0.0 size=N/A time=00:02:18.01 bitrate=N/A speed=15.8x    frame= 3471 fps=374 q=-0.0 size=N/A time=00:02:24.76 bitrate=N/A speed=15.6x    frame= 3689 fps=377 q=-0.0 size=N/A time=00:02:33.86 bitrate=N/A speed=15.7x    frame= 3914 fps=380 q=-0.0 size=N/A time=00:02:43.24 bitrate=N/A speed=15.8x    frame= 4161 fps=385 q=-0.0 size=N/A time=00:02:53.54 bitrate=N/A speed=  16x    frame= 4380 fps=386 q=-0.0 size=N/A time=00:03:02.68 bitrate=N/A speed=16.1x    frame= 4676 fps=394 q=-0.0 size=N/A time=00:03:15.02 bitrate=N/A speed=16.4x    frame= 4926 fps=398 q=-0.0 size=N/A time=00:03:25.45 bitrate=N/A speed=16.6x    frame= 5143 fps=399 q=-0.0 size=N/A time=00:03:34.50 bitrate=N/A speed=16.7x    frame= 5403 fps=403 q=-0.0 size=N/A time=00:03:45.35 bitrate=N/A speed=16.8x    frame= 5649 fps=406 q=-0.0 size=N/A time=00:03:55.65 bitrate=N/A speed=16.9x    frame= 5928 fps=411 q=-0.0 size=N/A time=00:04:07.24 bitrate=N/A speed=17.1x    frame= 6173 fps=413 q=-0.0 size=N/A time=00:04:17.46 bitrate=N/A speed=17.2x    frame= 6385 fps=413 q=-0.0 size=N/A time=00:04:26.30 bitrate=N/A speed=17.2x    frame= 6662 fps=417 q=-0.0 size=N/A time=00:04:37.86 bitrate=N/A speed=17.4x    frame= 6946 fps=421 q=-0.0 size=N/A time=00:04:49.70 bitrate=N/A speed=17.6x    frame= 7211 fps=424 q=-0.0 size=N/A time=00:05:00.75 bitrate=N/A speed=17.7x    frame= 7469 fps=426 q=-0.0 size=N/A time=00:05:11.51 bitrate=N/A speed=17.8x    frame= 7756 fps=430 q=-0.0 size=N/A time=00:05:23.48 bitrate=N/A speed=17.9x    frame= 8009 fps=432 q=-0.0 size=N/A time=00:05:34.04 bitrate=N/A speed=  18x    frame= 8283 fps=434 q=-0.0 size=N/A time=00:05:45.47 bitrate=N/A speed=18.1x    frame= 8544 fps=436 q=-0.0 size=N/A time=00:05:56.35 bitrate=N/A speed=18.2x    frame= 8801 fps=438 q=-0.0 size=N/A time=00:06:07.07 bitrate=N/A speed=18.3x    frame= 9068 fps=440 q=-0.0 size=N/A time=00:06:18.21 bitrate=N/A speed=18.3x    frame= 9331 fps=441 q=-0.0 size=N/A time=00:06:29.18 bitrate=N/A speed=18.4x    frame= 9556 fps=441 q=-0.0 size=N/A time=00:06:38.56 bitrate=N/A speed=18.4x    frame= 9774 fps=441 q=-0.0 size=N/A time=00:06:47.65 bitrate=N/A speed=18.4x    frame=10039 fps=443 q=-0.0 size=N/A time=00:06:58.70 bitrate=N/A speed=18.5x    frame=10260 fps=442 q=-0.0 size=N/A time=00:07:07.92 bitrate=N/A speed=18.4x    frame=10440 fps=440 q=-0.0 size=N/A time=00:07:15.43 bitrate=N/A speed=18.4x    frame=10699 fps=442 q=-0.0 size=N/A time=00:07:26.23 bitrate=N/A speed=18.4x    frame=10974 fps=444 q=-0.0 size=N/A time=00:07:37.70 bitrate=N/A speed=18.5x    frame=11256 fps=446 q=-0.0 size=N/A time=00:07:49.46 bitrate=N/A speed=18.6x    frame=11545 fps=448 q=-0.0 size=N/A time=00:08:01.52 bitrate=N/A speed=18.7x    frame=11827 fps=450 q=-0.0 size=N/A time=00:08:13.28 bitrate=N/A speed=18.8x    frame=12105 fps=451 q=-0.0 size=N/A time=00:08:24.87 bitrate=N/A speed=18.8x    frame=12379 fps=453 q=-0.0 size=N/A time=00:08:36.30 bitrate=N/A speed=18.9x    frame=12655 fps=454 q=-0.0 size=N/A time=00:08:47.81 bitrate=N/A speed=18.9x    frame=12893 fps=454 q=-0.0 size=N/A time=00:08:57.74 bitrate=N/A speed=  19x    frame=13155 fps=456 q=-0.0 size=N/A time=00:09:08.67 bitrate=N/A speed=  19x    frame=13364 fps=455 q=-0.0 size=N/A time=00:09:17.39 bitrate=N/A speed=  19x    frame=13581 fps=454 q=-0.0 size=N/A time=00:09:26.44 bitrate=N/A speed=18.9x    frame=13841 fps=455 q=-0.0 size=N/A time=00:09:37.28 bitrate=N/A speed=  19x    frame=14117 fps=456 q=-0.0 size=N/A time=00:09:48.79 bitrate=N/A speed=  19x    frame=14377 fps=457 q=-0.0 size=N/A time=00:09:59.64 bitrate=N/A speed=19.1x    frame=14618 fps=457 q=-0.0 size=N/A time=00:10:09.69 bitrate=N/A speed=19.1x    frame=14854 fps=457 q=-0.0 size=N/A time=00:10:19.53 bitrate=N/A speed=19.1x    frame=15113 fps=458 q=-0.0 size=N/A time=00:10:30.33 bitrate=N/A speed=19.1x    frame=15324 fps=457 q=-0.0 size=N/A time=00:10:39.13 bitrate=N/A speed=19.1x    frame=15571 fps=457 q=-0.0 size=N/A time=00:10:49.44 bitrate=N/A speed=19.1x    frame=15822 fps=458 q=-0.0 size=N/A time=00:10:59.90 bitrate=N/A speed=19.1x    frame=16048 fps=458 q=-0.0 size=N/A time=00:11:09.33 bitrate=N/A speed=19.1x    frame=16300 fps=458 q=-0.0 size=N/A time=00:11:19.84 bitrate=N/A speed=19.1x    frame=16562 fps=459 q=-0.0 size=N/A time=00:11:30.77 bitrate=N/A speed=19.1x    frame=16840 fps=460 q=-0.0 size=N/A time=00:11:42.36 bitrate=N/A speed=19.2x    frame=17110 fps=461 q=-0.0 size=N/A time=00:11:53.62 bitrate=N/A speed=19.2x    frame=17352 fps=461 q=-0.0 size=N/A time=00:12:03.72 bitrate=N/A speed=19.2x    frame=17625 fps=462 q=-0.0 size=N/A time=00:12:15.10 bitrate=N/A speed=19.3x    frame=17893 fps=463 q=-0.0 size=N/A time=00:12:26.28 bitrate=N/A speed=19.3x    frame=18112 fps=462 q=-0.0 size=N/A time=00:12:35.42 bitrate=N/A speed=19.3x    frame=18371 fps=463 q=-0.0 size=N/A time=00:12:46.22 bitrate=N/A speed=19.3x    frame=18631 fps=463 q=-0.0 size=N/A time=00:12:57.06 bitrate=N/A speed=19.3x    frame=18873 fps=463 q=-0.0 size=N/A time=00:13:07.20 bitrate=N/A speed=19.3x    frame=19141 fps=464 q=-0.0 size=N/A time=00:13:18.33 bitrate=N/A speed=19.3x    frame=19416 fps=465 q=-0.0 size=N/A time=00:13:29.80 bitrate=N/A speed=19.4x    frame=19663 fps=465 q=-0.0 size=N/A time=00:13:40.11 bitrate=N/A speed=19.4x    frame=19911 fps=465 q=-0.0 size=N/A time=00:13:50.45 bitrate=N/A speed=19.4x    frame=20125 fps=464 q=-0.0 size=N/A time=00:13:59.38 bitrate=N/A speed=19.4x    frame=20339 fps=464 q=-0.0 size=N/A time=00:14:08.30 bitrate=N/A speed=19.3x    frame=20538 fps=463 q=-0.0 size=N/A time=00:14:16.60 bitrate=N/A speed=19.3x    frame=20778 fps=463 q=-0.0 size=N/A time=00:14:26.61 bitrate=N/A speed=19.3x    frame=21053 fps=463 q=-0.0 size=N/A time=00:14:38.08 bitrate=N/A speed=19.3x    frame=21322 fps=464 q=-0.0 size=N/A time=00:14:49.30 bitrate=N/A speed=19.4x    frame=21576 fps=465 q=-0.0 size=N/A time=00:14:59.89 bitrate=N/A speed=19.4x    frame=21740 fps=463 q=-0.0 size=N/A time=00:15:06.73 bitrate=N/A speed=19.3x    frame=21984 fps=463 q=-0.0 size=N/A time=00:15:16.91 bitrate=N/A speed=19.3x    frame=22233 fps=463 q=-0.0 size=N/A time=00:15:27.30 bitrate=N/A speed=19.3x    frame=22473 fps=463 q=-0.0 size=N/A time=00:15:37.31 bitrate=N/A speed=19.3x    frame=22697 fps=463 q=-0.0 size=N/A time=00:15:46.65 bitrate=N/A speed=19.3x    frame=22925 fps=463 q=-0.0 size=N/A time=00:15:56.16 bitrate=N/A speed=19.3x    frame=23154 fps=463 q=-0.0 size=N/A time=00:16:05.71 bitrate=N/A speed=19.3x    frame=23418 fps=463 q=-0.0 size=N/A time=00:16:16.72 bitrate=N/A speed=19.3x    frame=23652 fps=463 q=-0.0 size=N/A time=00:16:26.48 bitrate=N/A speed=19.3x    frame=23930 fps=464 q=-0.0 size=N/A time=00:16:38.08 bitrate=N/A speed=19.3x    frame=24210 fps=465 q=-0.0 size=N/A time=00:16:49.75 bitrate=N/A speed=19.4x    frame=24492 fps=465 q=-0.0 size=N/A time=00:17:01.52 bitrate=N/A speed=19.4x    frame=24746 fps=466 q=-0.0 size=N/A time=00:17:12.11 bitrate=N/A speed=19.4x    frame=25027 fps=466 q=-0.0 size=N/A time=00:17:23.83 bitrate=N/A speed=19.5x    frame=25288 fps=467 q=-0.0 size=N/A time=00:17:34.72 bitrate=N/A speed=19.5x    frame=25583 fps=468 q=-0.0 size=N/A time=00:17:47.02 bitrate=N/A speed=19.5x    frame=25818 fps=468 q=-0.0 size=N/A time=00:17:56.82 bitrate=N/A speed=19.5x    frame=26060 fps=468 q=-0.0 size=N/A time=00:18:06.91 bitrate=N/A speed=19.5x    frame=26310 fps=468 q=-0.0 size=N/A time=00:18:17.34 bitrate=N/A speed=19.5x    frame=26569 fps=468 q=-0.0 size=N/A time=00:18:28.14 bitrate=N/A speed=19.5x    frame=26850 fps=469 q=-0.0 size=N/A time=00:18:39.86 bitrate=N/A speed=19.6x    frame=27098 fps=469 q=-0.0 size=N/A time=00:18:50.21 bitrate=N/A speed=19.6x    frame=27380 fps=470 q=-0.0 size=N/A time=00:19:01.97 bitrate=N/A speed=19.6x    frame=27628 fps=470 q=-0.0 size=N/A time=00:19:12.31 bitrate=N/A speed=19.6x    frame=27868 fps=470 q=-0.0 size=N/A time=00:19:22.32 bitrate=N/A speed=19.6x    frame=28117 fps=470 q=-0.0 size=N/A time=00:19:32.71 bitrate=N/A speed=19.6x    frame=28349 fps=470 q=-0.0 size=N/A time=00:19:42.38 bitrate=N/A speed=19.6x    frame=28584 fps=470 q=-0.0 size=N/A time=00:19:52.19 bitrate=N/A speed=19.6x    frame=28796 fps=469 q=-0.0 size=N/A time=00:20:01.03 bitrate=N/A speed=19.6x    frame=29027 fps=469 q=-0.0 size=N/A time=00:20:10.66 bitrate=N/A speed=19.6x    frame=29271 fps=469 q=-0.0 size=N/A time=00:20:20.84 bitrate=N/A speed=19.6x    frame=29501 fps=469 q=-0.0 size=N/A time=00:20:30.43 bitrate=N/A speed=19.5x    frame=29720 fps=468 q=-0.0 size=N/A time=00:20:39.57 bitrate=N/A speed=19.5x    frame=29931 fps=468 q=-0.0 size=N/A time=00:20:48.37 bitrate=N/A speed=19.5x    frame=30140 fps=467 q=-0.0 size=N/A time=00:20:57.08 bitrate=N/A speed=19.5x    frame=30372 fps=467 q=-0.0 size=N/A time=00:21:06.76 bitrate=N/A speed=19.5x    frame=30631 fps=468 q=-0.0 size=N/A time=00:21:17.56 bitrate=N/A speed=19.5x    frame=30855 fps=467 q=-0.0 size=N/A time=00:21:26.91 bitrate=N/A speed=19.5x    frame=31095 fps=467 q=-0.0 size=N/A time=00:21:36.92 bitrate=N/A speed=19.5x    frame=31356 fps=467 q=-0.0 size=N/A time=00:21:47.80 bitrate=N/A speed=19.5x    frame=31578 fps=467 q=-0.0 size=N/A time=00:21:57.06 bitrate=N/A speed=19.5x    frame=31803 fps=467 q=-0.0 size=N/A time=00:22:06.45 bitrate=N/A speed=19.5x    frame=32020 fps=467 q=-0.0 size=N/A time=00:22:15.50 bitrate=N/A speed=19.5x    frame=32229 fps=466 q=-0.0 size=N/A time=00:22:24.21 bitrate=N/A speed=19.4x    frame=32467 fps=466 q=-0.0 size=N/A time=00:22:34.14 bitrate=N/A speed=19.4x    frame=32730 fps=466 q=-0.0 size=N/A time=00:22:45.11 bitrate=N/A speed=19.5x    frame=32941 fps=466 q=-0.0 size=N/A time=00:22:53.91 bitrate=N/A speed=19.4x    frame=33152 fps=466 q=-0.0 size=N/A time=00:23:02.71 bitrate=N/A speed=19.4x    frame=33373 fps=465 q=-0.0 size=N/A time=00:23:11.93 bitrate=N/A speed=19.4x    [Parsed_psnr_10 @ 000001ec8559f740] PSNR y:48.384350 u:51.146159 v:51.116123 average:49.122160 min:35.804507 max:inf
[out#0/null @ 000001ecf005c540] video:14394KiB audio:261996KiB subtitle:0KiB other streams:0KiB global headers:0KiB muxing overhead: unknown
frame=33499 fps=465 q=-0.0 Lsize=N/A time=00:23:17.18 bitrate=N/A speed=19.4x    
